HIERARCHY
ROOT pelvis
{
	OFFSET 0.003123 -0.351407 0.012037
	CHANNELS 6 Xposition Yposition Zposition Zrotation Yrotation Xrotation 
	JOINT left_hip
	{
		OFFSET 0.058189 -0.092763 -0.026001
		CHANNELS 3 Zrotation Yrotation Xrotation
		JOINT left_knee
		{
			OFFSET 0.054695 -0.378753 -0.009396
			CHANNELS 3 Zrotation Yrotation Xrotation
			JOINT left_ankle
			{
				OFFSET -0.043453 -0.403059 -0.031876
				CHANNELS 3 Zrotation Yrotation Xrotation
				JOINT left_foot
				{
					OFFSET 0.047257 -0.057997 0.118216
					CHANNELS 3 Zrotation Yrotation Xrotation
					End Site
					{
						OFFSET 0.000000 0.000000 0.000000
					}
				}
			}
		}
	}
	JOINT right_hip
	{
		OFFSET -0.063267 -0.103908 -0.021250
		CHANNELS 3 Zrotation Yrotation Xrotation
		JOINT right_knee
		{
			OFFSET -0.044210 -0.362380 -0.016824
			CHANNELS 3 Zrotation Yrotation Xrotation
			JOINT right_ankle
			{
				OFFSET 0.015417 -0.410728 -0.020192
				CHANNELS 3 Zrotation Yrotation Xrotation
				JOINT right_foot
				{
					OFFSET -0.038812 -0.058328 0.119049
					CHANNELS 3 Zrotation Yrotation Xrotation
					End Site
					{
						OFFSET 0.000000 0.000000 0.000000
					}
				}
			}
		}
	}
	JOINT spine_1
	{
		OFFSET -0.002763 0.109891 -0.027618
		CHANNELS 3 Zrotation Yrotation Xrotation
		JOINT spine_2
		{
			OFFSET 0.009448 0.131853 -0.005940
			CHANNELS 3 Zrotation Yrotation Xrotation
			JOINT spine_3
			{
				OFFSET -0.011330 0.052235 0.028447
				CHANNELS 3 Zrotation Yrotation Xrotation
				JOINT neck
				{
					OFFSET -0.012164 0.165167 -0.031615
					CHANNELS 3 Zrotation Yrotation Xrotation
					JOINT head
					{
						OFFSET 0.024783 0.160452 0.020737
						CHANNELS 3 Zrotation Yrotation Xrotation
						End Site
						{
							OFFSET 0.000000 0.000000 0.000000
						}
					}
				}
				JOINT left_collar
				{
					OFFSET 0.046364 0.084944 -0.007220
					CHANNELS 3 Zrotation Yrotation Xrotation
					JOINT left_shoulder
					{
						OFFSET 0.119239 0.057728 -0.015461
						CHANNELS 3 Zrotation Yrotation Xrotation
						JOINT left_elbow
						{
							OFFSET 0.254123 -0.072151 -0.042459
							CHANNELS 3 Zrotation Yrotation Xrotation
							JOINT left_wrist
							{
								OFFSET 0.251987 0.023221 -0.002472
								CHANNELS 3 Zrotation Yrotation Xrotation
								JOINT left_index_1
								{
									OFFSET 0.101902 -0.008688 0.019351
									CHANNELS 3 Zrotation Yrotation Xrotation
									JOINT left_index_2
									{
										OFFSET 0.030149 -0.011154 0.001151
										CHANNELS 3 Zrotation Yrotation Xrotation
										JOINT left_index_3
										{
											OFFSET 0.006504 -0.021577 -0.002433
											CHANNELS 3 Zrotation Yrotation Xrotation
											End Site
											{
												OFFSET 0.000000 0.000000 0.000000
											}
										}
									}
								}
								JOINT left_middle_1
								{
									OFFSET 0.109398 -0.006328 -0.003981
									CHANNELS 3 Zrotation Yrotation Xrotation
									JOINT left_middle_2
									{
										OFFSET 0.026472 -0.015218 -0.004641
										CHANNELS 3 Zrotation Yrotation Xrotation
										JOINT left_middle_3
										{
											OFFSET 0.005022 -0.023347 -0.001911
											CHANNELS 3 Zrotation Yrotation Xrotation
											End Site
											{
												OFFSET 0.000000 0.000000 0.000000
											}
										}
									}
								}
								JOINT left_pinky_1
								{
									OFFSET 0.084047 -0.014539 -0.043750
									CHANNELS 3 Zrotation Yrotation Xrotation
									JOINT left_pinky_2
									{
										OFFSET 0.012124 -0.014448 -0.005375
										CHANNELS 3 Zrotation Yrotation Xrotation
										JOINT left_pinky_3
										{
											OFFSET 0.003798 -0.018853 0.000167
											CHANNELS 3 Zrotation Yrotation Xrotation
											End Site
											{
												OFFSET 0.000000 0.000000 0.000000
											}
										}
									}
								}
								JOINT left_ring_1
								{
									OFFSET 0.097444 -0.009268 -0.027345
									CHANNELS 3 Zrotation Yrotation Xrotation
									JOINT left_ring_2
									{
										OFFSET 0.023561 -0.016057 -0.001895
										CHANNELS 3 Zrotation Yrotation Xrotation
										JOINT left_ring_3
										{
											OFFSET 0.004257 -0.023548 0.000814
											CHANNELS 3 Zrotation Yrotation Xrotation
											End Site
											{
												OFFSET 0.000000 0.000000 0.000000
											}
										}
									}
								}
								JOINT left_thumb_1
								{
									OFFSET 0.040636 -0.017977 0.025611
									CHANNELS 3 Zrotation Yrotation Xrotation
									JOINT left_thumb_2
									{
										OFFSET 0.021637 -0.017639 0.011623
										CHANNELS 3 Zrotation Yrotation Xrotation
										JOINT left_thumb_3
										{
											OFFSET 0.024002 -0.008356 0.006548
											CHANNELS 3 Zrotation Yrotation Xrotation
											End Site
											{
												OFFSET 0.000000 0.000000 0.000000
											}
										}
									}
								}
							}
						}
					}
				}
				JOINT right_collar
				{
					OFFSET -0.047695 0.084339 -0.013400
					CHANNELS 3 Zrotation Yrotation Xrotation
					JOINT right_shoulder
					{
						OFFSET -0.102578 0.053524 -0.012669
						CHANNELS 3 Zrotation Yrotation Xrotation
						JOINT right_elbow
						{
							OFFSET -0.271150 -0.036492 -0.026467
							CHANNELS 3 Zrotation Yrotation Xrotation
							JOINT right_wrist
							{
								OFFSET -0.249267 -0.004533 -0.015325
								CHANNELS 3 Zrotation Yrotation Xrotation
								JOINT right_index_1
								{
									OFFSET -0.099881 -0.011783 0.019600
									CHANNELS 3 Zrotation Yrotation Xrotation
									JOINT right_index_2
									{
										OFFSET -0.030148 -0.011154 0.001151
										CHANNELS 3 Zrotation Yrotation Xrotation
										JOINT right_index_3
										{
											OFFSET -0.006505 -0.021577 -0.002432
											CHANNELS 3 Zrotation Yrotation Xrotation
											End Site
											{
												OFFSET 0.000000 0.000000 0.000000
											}
										}
									}
								}
								JOINT right_middle_1
								{
									OFFSET -0.107376 -0.009422 -0.003734
									CHANNELS 3 Zrotation Yrotation Xrotation
									JOINT right_middle_2
									{
										OFFSET -0.026472 -0.015218 -0.004641
										CHANNELS 3 Zrotation Yrotation Xrotation
										JOINT right_middle_3
										{
											OFFSET -0.005022 -0.023347 -0.001911
											CHANNELS 3 Zrotation Yrotation Xrotation
											End Site
											{
												OFFSET 0.000000 0.000000 0.000000
											}
										}
									}
								}
								JOINT right_pinky_1
								{
									OFFSET -0.082027 -0.017634 -0.043503
									CHANNELS 3 Zrotation Yrotation Xrotation
									JOINT right_pinky_2
									{
										OFFSET -0.012123 -0.014448 -0.005374
										CHANNELS 3 Zrotation Yrotation Xrotation
										JOINT right_pinky_3
										{
											OFFSET -0.003798 -0.018852 0.000167
											CHANNELS 3 Zrotation Yrotation Xrotation
											End Site
											{
												OFFSET 0.000000 0.000000 0.000000
											}
										}
									}
								}
								JOINT right_ring_1
								{
									OFFSET -0.095423 -0.012362 -0.027099
									CHANNELS 3 Zrotation Yrotation Xrotation
									JOINT right_ring_2
									{
										OFFSET -0.023561 -0.016057 -0.001895
										CHANNELS 3 Zrotation Yrotation Xrotation
										JOINT right_ring_3
										{
											OFFSET -0.004257 -0.023548 0.000816
											CHANNELS 3 Zrotation Yrotation Xrotation
											End Site
											{
												OFFSET 0.000000 0.000000 0.000000
											}
										}
									}
								}
								JOINT right_thumb_1
								{
									OFFSET -0.038613 -0.021074 0.025861
									CHANNELS 3 Zrotation Yrotation Xrotation
									JOINT right_thumb_2
									{
										OFFSET -0.021636 -0.017639 0.011623
										CHANNELS 3 Zrotation Yrotation Xrotation
										JOINT right_thumb_3
										{
											OFFSET -0.024004 -0.008353 0.006547
											CHANNELS 3 Zrotation Yrotation Xrotation
											End Site
											{
												OFFSET 0.000000 0.000000 0.000000
											}
										}
									}
								}
							}
						}
					}
				}
			}
		}
	}
}
MOTION
Frames: 4
Frame Time: 0.050000
0.107441 0.938684 -0.009972 1.320365 2.331143 -16.926482 -5.485504 4.096089 21.545716 -2.459748 0.729547 -6.391126 0.221378 1.465549 1.240421 0.000000 0.000000 0.000000 -9.913725 0.069770 0.697169 0.718549 0.750871 27.538637 -0.890765 -2.558408 1.272575 0.000000 0.000000 0.000000 -4.229625 -0.725424 12.528002 -9.394482 0.333613 -16.569307 9.274722 -0.095761 28.875736 -1.398679 0.171025 0.763465 0.000000 0.000000 0.000000 -1.304696 -6.521187 3.097453 -60.009194 -1.609438 -10.843364 -27.766591 -35.667376 13.090887 5.187269 9.245829 20.703574 -10.300494 8.702142 2.687380 0.750486 0.645440 1.992664 0.000000 0.000000 0.000000 -12.900023 1.892291 -1.915258 -7.774659 3.998066 9.214641 0.000000 0.000000 0.000000 19.597583 -21.975266 -16.849925 -32.012790 0.240490 -3.883354 0.000000 0.000000 0.000000 -12.032622 -2.204914 -2.553789 -19.098115 1.610377 1.730251 0.000000 0.000000 0.000000 5.436097 20.138458 18.934440 10.488384 -4.947509 -5.774710 0.000000 0.000000 0.000000 -4.546745 2.996845 1.705084 69.492361 2.413339 -6.834351 -21.693768 78.827054 -16.874609 -5.485540 -17.558713 6.424796 -1.971935 -17.826052 6.998014 -1.750837 1.597689 -4.784607 0.000000 0.000000 0.000000 -8.812176 -5.205983 5.149037 10.742899 -1.494339 1.557336 0.000000 0.000000 0.000000 -39.379230 11.440807 2.048864 29.452473 -9.040603 18.576241 0.000000 0.000000 0.000000 -16.664686 -4.164422 5.363797 23.241146 -0.605418 3.025423 0.000000 0.000000 0.000000 -5.188356 -23.600158 20.957956 -15.709733 6.880099 -8.007007 0.000000 0.000000 0.000000 
0.107912 0.938684 -0.009972 1.290974 2.461966 -16.929049 -5.507839 4.087153 21.529756 -2.409492 0.723267 -6.347247 0.193091 1.378115 1.198453 0.000000 0.000000 0.000000 -9.980451 0.063104 0.760940 0.802895 0.714073 27.488546 -0.892318 -2.591569 1.326358 0.000000 0.000000 0.000000 -4.090276 -0.730213 12.543944 -9.419765 0.344195 -16.594376 9.175570 -0.177694 28.900489 -1.398770 0.169729 0.773090 0.000000 0.000000 0.000000 -1.248565 -6.586945 3.131768 -59.845970 -1.649068 -10.813054 -28.213120 -35.584759 13.214555 5.436106 9.219320 20.729454 -8.785568 6.031027 1.991736 -1.788256 2.772121 5.776278 0.000000 0.000000 0.000000 -12.871164 1.774448 -1.958074 -10.046113 4.384030 8.498156 0.000000 0.000000 0.000000 24.253052 -24.421737 -21.140825 -32.017029 0.457411 -3.354623 0.000000 0.000000 0.000000 -11.992678 -2.306451 -2.595861 -21.420133 1.563837 0.787193 0.000000 0.000000 0.000000 5.482647 20.066605 18.829388 9.239033 -6.011134 -5.668165 0.000000 0.000000 0.000000 -4.517387 2.929032 1.671709 69.384358 2.350759 -6.853245 -24.661869 79.747902 -19.633589 -5.303482 -17.148579 3.835999 -5.515661 -17.870666 7.441351 0.217793 1.398657 -4.737698 0.000000 0.000000 0.000000 -11.889395 -5.687811 6.351692 7.990878 -0.301442 -1.113165 0.000000 0.000000 0.000000 -37.537607 10.664357 2.127871 29.681601 -7.413801 15.769653 0.000000 0.000000 0.000000 -15.838142 -4.461821 5.562706 23.026227 0.658620 0.702836 0.000000 0.000000 0.000000 -5.856893 -24.285352 21.150048 -16.437908 6.766327 -8.090234 0.000000 0.000000 0.000000 
0.107912 0.938684 -0.009972 1.290406 2.461728 -16.920076 -5.508238 4.085252 21.518802 -2.409568 0.723125 -6.345611 0.193896 1.379342 1.198048 0.000000 0.000000 0.000000 -9.961935 0.063366 0.749429 0.758784 0.727566 27.491656 -0.870617 -2.550887 1.329151 0.000000 0.000000 0.000000 -4.089169 -0.729705 12.529767 -9.419110 0.345049 -16.590433 9.278042 -0.204203 28.894113 -1.549107 0.202131 0.751170 0.000000 0.000000 0.000000 -1.332036 -6.612980 3.141750 -59.823229 -1.641585 -10.812390 -28.629642 -36.015582 13.543768 5.786843 10.059551 22.082136 -8.567705 6.385132 2.123446 -1.121982 2.551805 5.498285 0.000000 0.000000 0.000000 -14.466219 1.572365 -2.471215 -6.270861 3.808942 9.901270 0.000000 0.000000 0.000000 22.074532 -24.123232 -19.726681 -28.384928 0.956761 -1.866263 0.000000 0.000000 0.000000 -13.033851 -1.796007 -2.544415 -16.750444 0.426965 -3.656124 0.000000 0.000000 0.000000 6.512194 20.753315 19.599581 8.850620 -6.856611 -5.869640 0.000000 0.000000 0.000000 -4.469353 2.921497 1.666665 69.397421 1.686749 -7.202259 -30.906132 81.697483 -25.763334 -7.072882 -15.852110 3.740201 -7.282646 -15.990162 6.732764 -3.079309 1.973791 -6.232620 0.000000 0.000000 0.000000 -14.233187 -3.926809 5.645822 7.763892 -0.769882 0.588085 0.000000 0.000000 0.000000 -35.953490 10.334761 1.766549 27.403851 -5.450270 12.488464 0.000000 0.000000 0.000000 -15.862149 -3.485063 4.601277 23.238985 0.484830 1.188818 0.000000 0.000000 0.000000 -6.242400 -24.475006 21.106674 -14.435562 8.461509 -8.158842 0.000000 0.000000 0.000000 
0.107441 0.938845 -0.009972 1.410551 2.274648 -16.942589 -5.600004 4.128134 21.573060 -2.426060 0.731944 -6.416689 0.206690 1.511829 1.335177 0.000000 0.000000 0.000000 -9.973148 0.071942 0.690461 0.577703 0.800025 27.547867 -0.760403 -2.322787 1.303284 0.000000 0.000000 0.000000 -4.194406 -0.726495 12.539525 -9.461894 0.360175 -16.561804 9.341627 -0.054971 29.126669 -1.706526 0.291017 0.334048 0.000000 0.000000 0.000000 -1.288090 -6.336522 3.006714 -59.708846 -1.821332 -10.757813 -28.811332 -35.979509 13.594777 5.851542 9.993929 22.127238 -8.609735 6.384304 2.116355 -3.174031 2.927175 5.096716 0.000000 0.000000 0.000000 -14.421983 1.546771 -2.475234 -4.789764 2.414238 6.241773 0.000000 0.000000 0.000000 22.063903 -24.031179 -19.629070 -28.036224 0.990090 -1.763288 0.000000 0.000000 0.000000 -14.037581 -2.432286 -2.965017 -14.725426 0.522993 -2.466707 0.000000 0.000000 0.000000 5.364110 20.238659 19.096017 9.996287 -5.297847 -5.755038 0.000000 0.000000 0.000000 -4.410224 2.726354 1.572031 69.421605 1.261036 -7.415832 -40.831424 84.160459 -36.013841 -9.529297 -14.418236 3.746589 -9.678580 -14.430347 6.169686 -6.235852 1.743552 -4.666973 0.000000 0.000000 0.000000 -15.382924 -3.641650 5.638266 5.293563 -0.291256 -0.465340 0.000000 0.000000 0.000000 -35.404422 10.284954 1.489840 23.814133 -5.554217 13.818152 0.000000 0.000000 0.000000 -15.969093 -4.088764 5.048080 18.997716 0.967069 -0.532825 0.000000 0.000000 0.000000 -7.282089 -25.613061 22.011756 -13.418899 8.733182 -7.912090 0.000000 0.000000 0.000000 
